<svg width="400" height="416" viewBox="0 0 400 416" fill="none" xmlns="http://www.w3.org/2000/svg">
<path d="M209.611 179.407C203.07 184.713 192.883 181.82 189.909 173.812L131.467 16.4265C128.494 8.41852 134.574 0.251826 143.227 0.632779L382.678 11.1756C394.047 11.6762 399.215 25.5922 390.62 32.5645L209.611 179.407Z" fill="#0066CC"/>
<path d="M202.531 54.8375C207.75 50.5737 215.712 51.109 220.313 56.0331L272.744 112.137C277.345 117.061 276.845 124.509 271.625 128.773L73.659 290.496C68.4396 294.76 60.478 294.224 55.8763 289.3L3.44576 233.197C-1.15595 228.273 -0.65521 220.824 4.56419 216.56L202.531 54.8375Z" fill="#0066CC"/>
<path d="M190.785 236.752C197.299 231.414 207.501 234.256 210.514 242.249L269.738 399.342C272.751 407.335 266.711 415.532 258.057 415.194L18.5565 405.842C7.18464 405.398 1.94811 391.507 10.5079 384.493L190.785 236.752Z" fill="#0066CC"/>
<path d="M198.485 361.285C193.286 365.575 185.322 365.079 180.696 360.178L127.987 304.335C123.361 299.434 123.825 291.984 129.023 287.694L326.183 124.989C331.381 120.699 339.346 121.195 343.972 126.096L396.68 181.939C401.307 186.84 400.843 194.29 395.645 198.58L198.485 361.285Z" fill="#0066CC"/>
</svg>
